<?xml version="1.0" encoding="UTF-8" standalone="no"?>
<!-- Created with Inkscape (http://www.inkscape.org/) -->

<svg
   version="1.1"
   id="svg840"
   xml:space="preserve"
   width="1066.6667"
   height="1066.6667"
   viewBox="0 0 1066.6667 1066.6667"
   sodipodi:docname="database.ai.svg"
   inkscape:version="1.1.1 (3bf5ae0d25, 2021-09-20)"
   xmlns:inkscape="http://www.inkscape.org/namespaces/inkscape"
   xmlns:sodipodi="http://sodipodi.sourceforge.net/DTD/sodipodi-0.dtd"
   xmlns="http://www.w3.org/2000/svg"
   xmlns:svg="http://www.w3.org/2000/svg"><defs
     id="defs844"><clipPath
       clipPathUnits="userSpaceOnUse"
       id="clipPath854"><path
         d="M 0,800 H 800 V 0 H 0 Z"
         id="path852" /></clipPath><clipPath
       clipPathUnits="userSpaceOnUse"
       id="clipPath866"><path
         d="M 400,800 C 179.086,800 0,620.914 0,400 v 0 C 0,179.086 179.086,0 400,0 v 0 c 220.914,0 400,179.086 400,400 v 0 c 0,220.914 -179.086,400 -400,400 z"
         id="path864" /></clipPath><clipPath
       clipPathUnits="userSpaceOnUse"
       id="clipPath874"><path
         d="M 8.06517,567.816 H 550.896 V 8.95416 H 8.06517 Z"
         id="path872" /></clipPath><clipPath
       clipPathUnits="userSpaceOnUse"
       id="clipPath878"><path
         d="m 281.49,8.954 258.375,258.375 c 7.284,7.009 11.031,14.76 11.031,23.08 v 73.061 73.06 73.061 c 0,17.423 -16.392,32.356 -47.404,43.186 -27.773,9.698 -64.527,15.039 -103.492,15.039 -38.965,0 -75.719,-5.341 -103.492,-15.039 -17.135,-5.984 -29.798,-13.223 -37.707,-21.44 L 8.065,280.602 C 31.763,127.63 122.687,36.879 281.49,8.954"
         id="path876" /></clipPath><linearGradient
       x1="0"
       y1="0"
       x2="1"
       y2="0"
       gradientUnits="userSpaceOnUse"
       gradientTransform="matrix(-241.45952,-241.45952,-241.45952,241.45952,409.33347,409.33319)"
       spreadMethod="pad"
       id="linearGradient888"><stop
         style="stop-opacity:1;stop-color:#ffffff"
         offset="0"
         id="stop884" /><stop
         style="stop-opacity:0;stop-color:#ffffff"
         offset="1"
         id="stop886" /></linearGradient><mask
       maskUnits="userSpaceOnUse"
       x="0"
       y="0"
       width="1"
       height="1"
       id="mask890"><g
         id="g900"><g
           id="g898"><g
             id="g896"><g
               id="g894"><path
                 d="M -32768,32767 H 32767 V -32768 H -32768 Z"
                 style="fill:url(#linearGradient888);stroke:none"
                 id="path892" /></g></g></g></g></mask><linearGradient
       x1="0"
       y1="0"
       x2="1"
       y2="0"
       gradientUnits="userSpaceOnUse"
       gradientTransform="matrix(-241.45952,-241.45952,-241.45952,241.45952,409.33347,409.33319)"
       spreadMethod="pad"
       id="linearGradient906"><stop
         style="stop-opacity:1;stop-color:#000000"
         offset="0"
         id="stop902" /><stop
         style="stop-opacity:1;stop-color:#000000"
         offset="1"
         id="stop904" /></linearGradient></defs><sodipodi:namedview
     id="namedview842"
     pagecolor="#ffffff"
     bordercolor="#111111"
     borderopacity="1"
     inkscape:pageshadow="0"
     inkscape:pageopacity="0"
     inkscape:pagecheckerboard="1"
     showgrid="false"
     inkscape:zoom="2.2466634"
     inkscape:cx="529.22925"
     inkscape:cy="461.57336"
     inkscape:window-width="1920"
     inkscape:window-height="947"
     inkscape:window-x="0"
     inkscape:window-y="27"
     inkscape:window-maximized="1"
     inkscape:current-layer="g926" /><g
     id="g846"
     inkscape:groupmode="layer"
     inkscape:label="database-4941301"
     transform="matrix(1.3333333,0,0,-1.3333333,0,1066.6667)"><g
       id="g860"
       transform="translate(8.3883154,28.3923)"><g
         id="g926"
         transform="translate(400,249.1846)"><path
           style="fill:#0044ff;stroke:#000000;stroke-width:0.75px;stroke-linecap:butt;stroke-linejoin:miter;stroke-opacity:1;fill-opacity:1"
           d="m -133.896,86.197 c 0,0 115.636307,-52.680286 267.792,10e-7 7.83602,2.713035 2.95657,-53.902026 2.95657,-53.902026 0,0 -110.628043,-93.746849 -271.26714,-2.272376 C -144.1827,35.58497 -133.896,86.197 -133.896,86.197 Z"
           id="path1494"
           sodipodi:nodetypes="cscsc" /><path
           style="fill:#0044ff;fill-opacity:1;stroke:#000000;stroke-width:0.75px;stroke-linecap:butt;stroke-linejoin:miter;stroke-opacity:1"
           d="m -133.896,159.258 c 0,0 115.636306,-52.68029 267.792,0 7.83602,2.71304 2.95657,-53.90203 2.95657,-53.90203 0,0 -110.628044,-93.746844 -271.26714,-2.27237 -9.76813,5.56237 0.51857,56.1744 0.51857,56.1744 z"
           id="path1494-4"
           sodipodi:nodetypes="cscsc" /><path
           style="fill:#0044ff;fill-opacity:1;stroke:#000000;stroke-width:0.75px;stroke-linecap:butt;stroke-linejoin:miter;stroke-opacity:1"
           d="m -133.896,232.319 c 0,0 115.636301,-52.68029 267.79199,0 7.83602,2.71304 2.95657,-53.90203 2.95657,-53.90203 0,0 -110.628039,-93.746843 -271.26713,-2.27237 -9.76814,5.56237 0.51857,56.1744 0.51857,56.1744 z"
           id="path1494-4-4"
           sodipodi:nodetypes="cscsc" /><path
           style="fill:#0044ff;fill-opacity:1;stroke:#000000;stroke-width:0.75px;stroke-linecap:butt;stroke-linejoin:miter;stroke-opacity:1"
           d="m -130.55146,279.79606 c 0,0 93.385271,65.33636 245.21407,9.19178 39.7313,-14.69219 19.07809,-42.19211 19.07809,-42.19211 0,0 -110.62804,-93.74684 -271.26713,-2.27237 -9.76814,5.56237 6.97497,35.2727 6.97497,35.2727 z"
           id="path1494-4-4-7"
           sodipodi:nodetypes="cscsc" /><path
           d="m 0,0 c -82.958,0 -133.896,24.011 -133.896,41.225 v 44.972 c 7.65,-5.635 17.824,-10.704 30.404,-15.097 C -75.719,61.401 -38.965,56.061 0,56.061 c 38.965,0 75.719,5.34 103.492,15.039 12.58,4.393 22.754,9.462 30.404,15.097 V 41.225 C 133.896,24.011 82.958,0 0,0 m 0,301.631 c 82.958,0 133.896,-24.01 133.896,-41.224 0,-17.214 -50.938,-41.225 -133.896,-41.225 -82.958,0 -133.896,24.011 -133.896,41.225 0,17.214 50.938,41.224 133.896,41.224 M 133.896,187.346 c 0,-17.214 -50.938,-41.225 -133.896,-41.225 -82.958,0 -133.896,24.011 -133.896,41.225 v 44.973 c 7.65,-5.636 17.824,-10.705 30.404,-15.098 27.773,-9.698 64.527,-15.039 103.492,-15.039 38.965,0 75.719,5.341 103.492,15.039 12.58,4.393 22.754,9.462 30.404,15.098 z m 0,-73.061 C 133.896,97.071 82.958,73.061 0,73.061 c -82.958,0 -133.896,24.01 -133.896,41.224 v 44.973 c 7.65,-5.636 17.824,-10.704 30.404,-15.098 27.773,-9.698 64.527,-15.039 103.492,-15.039 38.965,0 75.719,5.341 103.492,15.039 12.58,4.394 22.754,9.462 30.404,15.098 z M 103.492,303.592 C 75.719,313.291 38.965,318.631 0,318.631 c -38.965,0 -75.719,-5.34 -103.492,-15.039 -31.012,-10.829 -47.404,-25.763 -47.404,-43.185 v -73.061 -73.061 -73.06 c 0,-17.423 16.392,-32.357 47.404,-43.186 C -75.719,-11.659 -38.965,-17 0,-17 c 38.965,0 75.72,5.341 103.492,15.039 31.012,10.829 47.404,25.763 47.404,43.186 v 73.06 73.061 73.061 c 0,17.422 -16.392,32.356 -47.404,43.185"
           style="fill:#ffffff;fill-opacity:1;fill-rule:nonzero;stroke:none"
           id="path928" /></g></g></g></svg>
