<?xml version="1.0" encoding="UTF-8" standalone="no"?>
<svg
   width="120"
   height="60"
   version="1.1"
   id="svg36"
   sodipodi:docname="neo4j_logo.svg"
   inkscape:version="1.1.2 (0a00cf5339, 2022-02-04)"
   inkscape:export-filename="/home/geo/Desktop/codebase/database-paradigm-ppt/img/neo4j_logo.png"
   inkscape:export-xdpi="600"
   inkscape:export-ydpi="600"
   xmlns:inkscape="http://www.inkscape.org/namespaces/inkscape"
   xmlns:sodipodi="http://sodipodi.sourceforge.net/DTD/sodipodi-0.dtd"
   xmlns:xlink="http://www.w3.org/1999/xlink"
   xmlns="http://www.w3.org/2000/svg"
   xmlns:svg="http://www.w3.org/2000/svg">
  <sodipodi:namedview
     id="namedview38"
     pagecolor="#ffffff"
     bordercolor="#111111"
     borderopacity="1"
     inkscape:pageshadow="0"
     inkscape:pageopacity="0"
     inkscape:pagecheckerboard="1"
     showgrid="false"
     inkscape:zoom="10.683333"
     inkscape:cx="60"
     inkscape:cy="30.046802"
     inkscape:window-width="1920"
     inkscape:window-height="947"
     inkscape:window-x="0"
     inkscape:window-y="27"
     inkscape:window-maximized="1"
     inkscape:current-layer="svg36" />
  <g
     transform="matrix(.237004 0 0 .237004 5.369548 -9.353936)"
     id="g28">
    <path
       d="M159.8 157.35c0 43.78-35.485 79.265-79.265 79.265S1.27 201.13 1.27 157.35s35.485-79.265 79.265-79.265c43.78-.04 79.266 35.485 79.266 79.265"
       fill="#008dc2"
       id="path2" />
    <g
       fill="#fff"
       id="g18">
      <use
         xlink:href="#B"
         id="use4" />
      <use
         xlink:href="#B"
         x="1.075"
         y="17.397"
         id="use6" />
      <path
         d="M41.363 167.18c0 3.495-2.842 6.337-6.337 6.337s-6.337-2.842-6.337-6.337 2.842-6.337 6.337-6.337c3.496-.038 6.337 2.804 6.337 6.337m8.68 16.514c0 3.495-2.842 6.337-6.337 6.337s-6.337-2.842-6.337-6.337 2.842-6.337 6.337-6.337c3.495-.038 6.337 2.804 6.337 6.337"
         id="path8" />
      <use
         xlink:href="#C"
         id="use10" />
      <path
         d="M129.423 193.14c0 3.495-2.842 6.337-6.337 6.337s-6.337-2.842-6.337-6.337 2.842-6.337 6.337-6.337 6.337 2.843 6.337 6.337"
         id="path12" />
      <use
         xlink:href="#C"
         x="-21.89"
         y="-110.027"
         id="use14" />
      <path
         d="M79.345 90.9c0 3.495-2.842 6.337-6.337 6.337S66.67 94.405 66.67 90.9s2.842-6.337 6.337-6.337 6.337 2.843 6.337 6.337"
         id="path16" />
    </g>
    <g
       fill="#68b346"
       stroke="#fff"
       stroke-width="3.5"
       id="g26">
      <circle
         r="42.244"
         cy="138.454"
         cx="124.277"
         id="circle20" />
      <circle
         r="34.563"
         cy="224.594"
         cx="66.403"
         id="circle22" />
      <circle
         r="23.042"
         cy="95.98"
         cx="37.946"
         id="circle24" />
    </g>
  </g>
  <path
     d="M49.62 22.72h1.35v2.62c.648-1.593 2-2.836 4.753-2.836 3.133 0 5.24 2.107 5.24 5.43v8.4h-1.35v-8.13c0-2.728-1.674-4.43-4.186-4.43-2.728 0-4.456 2.107-4.456 5.24v7.32h-1.35V22.72zm13.748 6.834c0-4.24 2.9-7.157 6.644-7.157 3.7 0 6.32 3.052 6.32 6.78l-.027.675H64.7c.08 3.268 2.27 5.6 5.375 5.6 2.54 0 4.294-1.08 5.104-2.107v1.593c-1.27 1.134-2.8 1.783-5.104 1.783-3.916 0-6.698-2.863-6.698-7.076v-.08zm11.533-.918c-.027-2.782-2.188-4.97-4.888-4.97-2.836 0-5.16 2.188-5.267 4.97zm10.695-6.266c3.997 0 7.157 3.052 7.157 7.157s-3.16 7.157-7.157 7.157-7.157-3.052-7.157-7.157 3.16-7.157 7.157-7.157zm0 13.045c3.322 0 5.807-2.54 5.807-5.888s-2.485-5.888-5.807-5.888-5.807 2.54-5.807 5.888 2.485 5.888 5.807 5.888zM99.883 22.72h1.512l-5.78 12.316h8.4V30.58h1.404v10.965h-1.404v-5.213H93.482zm10.155 0h1.35v15.503c0 3.052-1.756 3.673-3.457 3.673-.324 0-.675-.027-.9-.08v-1.27c.324.054.702.08 1.026.08 1.377 0 1.972-.675 1.972-2.404zm-.297-3.646c0-.567.46-.972.972-.972s.972.405.972.972c0 .54-.46.945-.972.945s-.972-.405-.972-.945z"
     fill="#101010"
     id="path30"
     style="fill:#ffffff"
     inkscape:export-filename="/home/geo/Desktop/codebase/database-paradigm-ppt/img/neo4j_logo.png"
     inkscape:export-xdpi="600"
     inkscape:export-ydpi="600" />
  <defs
     id="defs34">
    <path
       id="B"
       d="M36.41 131.35c0 3.495-2.842 6.337-6.337 6.337s-6.337-2.842-6.337-6.337 2.842-6.337 6.337-6.337a6.32 6.32 0 0 1 6.337 6.337" />
    <path
       id="C"
       d="M117.902 206.775c0 3.495-2.842 6.337-6.337 6.337s-6.337-2.842-6.337-6.337 2.842-6.337 6.337-6.337 6.337 2.842 6.337 6.337" />
  </defs>
</svg>
